<?xml version="1.0" encoding="UTF-8"?>
<svg id="Calque_1" data-name="Calque 1" xmlns="http://www.w3.org/2000/svg" viewBox="0 0 36.68 31.52">
  <defs>
    <style>
      .cls-1 {
        fill: #0053a1;
      }

      .cls-2 {
        fill: #cad400;
      }

      .cls-3 {
        fill: #f28c00;
      }

      .cls-4 {
        fill: #df006e;
      }

      .cls-5 {
        fill: #003865;
      }
    </style>
  </defs>
  <path class="cls-2" d="M3.25,0c1.79,0,3.25,1.45,3.25,3.25v25.03c0,1.79-1.45,3.25-3.25,3.25s-3.25-1.45-3.25-3.25V3.25C0,1.45,1.45,0,3.25,0h0Z"/>
  <path class="cls-3" d="M10.79,0C12.59,0,14.04,1.45,14.04,3.25v25.03c0,1.79-1.45,3.25-3.25,3.25s-3.25-1.45-3.25-3.25V3.25C7.55,1.45,9,0,10.79,0h0Z"/>
  <path class="cls-4" d="M18.34,0c1.79,0,3.25,1.45,3.25,3.25v25.03c0,1.79-1.45,3.25-3.25,3.25s-3.25-1.45-3.25-3.25V3.25C15.09,1.45,16.55,0,18.34,0"/>
  <path class="cls-1" d="M25.89,0c1.79,0,3.25,1.45,3.25,3.25v25.03c0,1.79-1.45,3.25-3.25,3.25s-3.25-1.45-3.25-3.25V3.25C22.64,1.45,24.09,0,25.89,0h0Z"/>
  <path class="cls-5" d="M33.44,0c1.79,0,3.25,1.45,3.25,3.25v25.03c0,1.79-1.45,3.25-3.25,3.25s-3.25-1.45-3.25-3.25V3.25C30.19,1.45,31.64,0,33.44,0h0Z"/>
</svg>