<?xml version="1.0" encoding="UTF-8"?>
<svg id="Calque_1" data-name="Calque 1" xmlns="http://www.w3.org/2000/svg" viewBox="0 0 37.03 38.75">
  <defs>
    <style>
      .cls-1 {
        fill: #0053a1;
      }

      .cls-2 {
        fill: #b0b1b3;
      }
    </style>
  </defs>
  <path class="cls-2" d="M3.28,6.93c1.81,0,3.28,1.47,3.28,3.28v25.26c0,1.81-1.47,3.28-3.28,3.28s-3.28-1.47-3.28-3.28V10.21c0-1.81,1.47-3.28,3.28-3.28h0Z"/>
  <path class="cls-2" d="M10.9,6.93c1.81,0,3.28,1.47,3.28,3.28v25.26c0,1.81-1.47,3.28-3.28,3.28s-3.28-1.47-3.28-3.28V10.21c0-1.81,1.47-3.28,3.28-3.28h0Z"/>
  <path class="cls-2" d="M18.51,6.93c1.81,0,3.28,1.47,3.28,3.28v25.26c0,1.81-1.47,3.28-3.28,3.28s-3.28-1.47-3.28-3.28V10.21c0-1.81,1.47-3.28,3.28-3.28"/>
  <path class="cls-1" d="M26.13,0c1.81,0,3.28,1.47,3.28,3.28v25.26c0,1.81-1.47,3.28-3.28,3.28s-3.28-1.47-3.28-3.28V3.28c0-1.81,1.47-3.28,3.28-3.28h0Z"/>
  <path class="cls-2" d="M33.75,6.93c1.81,0,3.28,1.47,3.28,3.28v25.26c0,1.81-1.47,3.28-3.28,3.28s-3.28-1.47-3.28-3.28V10.21c0-1.81,1.47-3.28,3.28-3.28h0Z"/>
</svg>