<?xml version="1.0" encoding="UTF-8"?>
<svg id="Calque_1" data-name="Calque 1" xmlns="http://www.w3.org/2000/svg" viewBox="0 0 35.79 37.56">
  <defs>
    <style>
      .cls-1 {
        fill: #df006e;
      }

      .cls-2 {
        fill: #b0b1b3;
      }
    </style>
  </defs>
  <path class="cls-2" d="M3.17,6.67c1.75,0,3.17,1.42,3.17,3.17v24.42c0,1.75-1.42,3.17-3.17,3.17s-3.17-1.42-3.17-3.17V9.83c0-1.75,1.42-3.17,3.17-3.17h0Z"/>
  <path class="cls-2" d="M10.53,6.67c1.75,0,3.17,1.42,3.17,3.17v24.42c0,1.75-1.42,3.17-3.17,3.17s-3.17-1.42-3.17-3.17V9.83c0-1.75,1.42-3.17,3.17-3.17Z"/>
  <path class="cls-1" d="M17.9,0c1.75,0,3.17,1.42,3.17,3.17v24.42c0,1.75-1.42,3.17-3.17,3.17s-3.17-1.42-3.17-3.17V3.17c0-1.75,1.42-3.17,3.17-3.17"/>
  <path class="cls-2" d="M25.26,6.8c1.75,0,3.17,1.42,3.17,3.17v24.42c0,1.75-1.42,3.17-3.17,3.17s-3.17-1.42-3.17-3.17V9.97c0-1.75,1.42-3.17,3.17-3.17h0Z"/>
  <path class="cls-2" d="M32.62,6.67c1.75,0,3.17,1.42,3.17,3.17v24.42c0,1.75-1.42,3.17-3.17,3.17s-3.17-1.42-3.17-3.17V9.83c0-1.75,1.42-3.17,3.17-3.17h0Z"/>
</svg>