<?xml version="1.0" encoding="UTF-8"?>
<svg id="Calque_1" data-name="Calque 1" xmlns="http://www.w3.org/2000/svg" viewBox="0 0 36.66 38.36">
  <defs>
    <style>
      .cls-1 {
        fill: #cad400;
      }

      .cls-2 {
        fill: #b0b1b3;
      }
    </style>
  </defs>
  <path class="cls-1" d="M3.25,0c1.79,0,3.25,1.45,3.25,3.24v25.01c0,1.79-1.45,3.24-3.25,3.24s-3.25-1.45-3.25-3.24V3.24C0,1.45,1.45,0,3.24,0h0Z"/>
  <path class="cls-2" d="M10.79,6.86c1.79,0,3.25,1.45,3.25,3.24v25.01c0,1.79-1.45,3.24-3.25,3.24s-3.25-1.45-3.25-3.24V10.11c0-1.79,1.45-3.24,3.24-3.24h0Z"/>
  <path class="cls-2" d="M18.33,6.86c1.79,0,3.25,1.45,3.25,3.24v25.01c0,1.79-1.45,3.24-3.25,3.24s-3.24-1.45-3.24-3.24V10.11c0-1.79,1.45-3.24,3.24-3.24"/>
  <path class="cls-2" d="M25.87,6.86c1.79,0,3.24,1.45,3.24,3.24v25.01c0,1.79-1.45,3.24-3.24,3.24s-3.25-1.45-3.25-3.24V10.11c0-1.79,1.45-3.24,3.24-3.24h0Z"/>
  <path class="cls-2" d="M33.41,6.86c1.79,0,3.25,1.45,3.25,3.24v25.01c0,1.79-1.45,3.24-3.24,3.24s-3.25-1.45-3.25-3.24V10.11c0-1.79,1.45-3.24,3.25-3.24h0Z"/>
</svg>