<?xml version="1.0" encoding="UTF-8"?>
<svg id="Calque_1" data-name="Calque 1" xmlns="http://www.w3.org/2000/svg" viewBox="0 0 36.68 38.39">
  <defs>
    <style>
      .cls-1 {
        fill: #f28c00;
      }

      .cls-2 {
        fill: #b0b1b3;
      }
    </style>
  </defs>
  <path class="cls-2" d="M3.25,6.87c1.79,0,3.25,1.45,3.25,3.25v25.03c0,1.79-1.45,3.25-3.25,3.25s-3.25-1.45-3.25-3.25V10.11c0-1.79,1.45-3.25,3.25-3.25h0Z"/>
  <path class="cls-1" d="M10.79,0c1.79,0,3.25,1.45,3.25,3.25v25.03c0,1.79-1.45,3.25-3.25,3.25s-3.25-1.45-3.25-3.25V3.25c0-1.79,1.45-3.25,3.25-3.25h0Z"/>
  <path class="cls-2" d="M18.34,6.87c1.79,0,3.25,1.45,3.25,3.25v25.03c0,1.79-1.45,3.25-3.25,3.25s-3.25-1.45-3.25-3.25V10.11c0-1.79,1.45-3.25,3.25-3.25"/>
  <path class="cls-2" d="M25.89,6.87c1.79,0,3.25,1.45,3.25,3.25v25.03c0,1.79-1.45,3.25-3.25,3.25s-3.25-1.45-3.25-3.25V10.11c0-1.79,1.45-3.25,3.25-3.25h0Z"/>
  <path class="cls-2" d="M33.44,6.87c1.79,0,3.25,1.45,3.25,3.25v25.03c0,1.79-1.45,3.25-3.25,3.25s-3.25-1.45-3.25-3.25V10.11c0-1.79,1.45-3.25,3.25-3.25h0Z"/>
</svg>