<?xml version="1.0" encoding="UTF-8"?>
<svg id="Calque_1" data-name="Calque 1" xmlns="http://www.w3.org/2000/svg" viewBox="0 0 36.54 38.24">
  <defs>
    <style>
      .cls-1 {
        fill: #003865;
      }

      .cls-2 {
        fill: #b0b1b3;
      }
    </style>
  </defs>
  <path class="cls-2" d="M3.23,6.84c1.79,0,3.24,1.45,3.24,3.23v24.93c0,1.79-1.45,3.23-3.23,3.23s-3.24-1.45-3.24-3.23V10.08c0-1.79,1.45-3.23,3.23-3.23h0Z"/>
  <path class="cls-2" d="M10.75,6.84c1.79,0,3.24,1.45,3.24,3.24v24.93c0,1.79-1.45,3.23-3.23,3.23s-3.24-1.45-3.24-3.23V10.08c0-1.79,1.45-3.24,3.23-3.24h0Z"/>
  <path class="cls-2" d="M18.27,6.84c1.79,0,3.23,1.45,3.23,3.24v24.93c0,1.79-1.45,3.23-3.23,3.23s-3.23-1.45-3.23-3.23V10.08c0-1.79,1.45-3.24,3.23-3.24"/>
  <path class="cls-2" d="M25.79,6.84c1.79,0,3.23,1.45,3.23,3.24v24.93c0,1.79-1.45,3.23-3.23,3.23s-3.24-1.45-3.24-3.23V10.08c0-1.79,1.45-3.24,3.23-3.24h0Z"/>
  <path class="cls-1" d="M33.31,0c1.79,0,3.23,1.45,3.23,3.23v24.93c0,1.79-1.45,3.23-3.23,3.23s-3.24-1.45-3.24-3.23V3.23c0-1.79,1.45-3.23,3.24-3.23h0Z"/>
</svg>