<?xml version="1.0" encoding="UTF-8"?>
<svg id="Calque_1" data-name="Calque 1" xmlns="http://www.w3.org/2000/svg" xmlns:xlink="http://www.w3.org/1999/xlink" viewBox="0 0 413.27 75.94">
  <defs>
    <style>
      .cls-1, .cls-2, .cls-3 {
        fill: none;
      }

      .cls-4 {
        fill: #0053a1;
      }

      .cls-5 {
        fill: #cad400;
      }

      .cls-6 {
        fill: #1a171b;
      }

      .cls-7 {
        fill: #f28c00;
      }

      .cls-8 {
        fill: #df006e;
      }

      .cls-2 {
        stroke-width: 1.1px;
      }

      .cls-2, .cls-3 {
        stroke: #1a171b;
        stroke-miterlimit: 10;
      }

      .cls-3 {
        stroke-width: 1.1px;
      }

      .cls-9 {
        fill: #003865;
      }

      .cls-10 {
        clip-path: url(#clippath);
      }
    </style>
    <clipPath id="clippath">
      <rect class="cls-1" x="0" width="413.27" height="75.94"/>
    </clipPath>
  </defs>
  <g class="cls-10">
    <path class="cls-5" d="M7.79,0c4.3,0,7.79,3.48,7.79,7.79v60c0,4.3-3.48,7.79-7.79,7.79S0,72.08,0,67.79V7.79C0,3.48,3.49,0,7.78,0h0Z"/>
    <path class="cls-7" d="M25.88,0c4.3,0,7.79,3.48,7.79,7.78v60c0,4.3-3.49,7.78-7.79,7.78s-7.79-3.49-7.79-7.78V7.79C18.09,3.48,21.58,0,25.88,0h0Z"/>
    <path class="cls-8" d="M43.97,0c4.3,0,7.78,3.48,7.78,7.78v60c0,4.3-3.49,7.78-7.78,7.78s-7.78-3.49-7.78-7.78V7.79C36.19,3.48,39.68,0,43.97,0"/>
    <path class="cls-4" d="M62.07,0c4.3,0,7.79,3.48,7.79,7.78v60c0,4.3-3.49,7.78-7.78,7.78s-7.79-3.49-7.79-7.78V7.79C54.28,3.48,57.77,0,62.07,0h0Z"/>
    <path class="cls-9" d="M80.17,0c4.3,0,7.79,3.48,7.79,7.78v60c0,4.3-3.49,7.78-7.78,7.78s-7.79-3.49-7.79-7.78V7.79C72.38,3.48,75.86,0,80.16,0h0Z"/>
    <path class="cls-6" d="M141.32,19.1c0,7.94-6.34,11.41-13.48,11.41-10.09,0-14.76-6.14-14.76-15.28-.28-8.97,5.06-15.04,14.8-15.04,7.26,0,13.4,2.95,13.44,11.41h-10.45c-.16-3.27-1.36-3.91-2.75-3.91-2.95,0-3.23,3.03-3.23,7.66,0,4.39.24,7.66,3.11,7.66,1.47,0,2.47-.88,2.63-3.91h10.69Z"/>
    <polygon class="cls-6" points="144.35 .96 166.25 .96 166.25 8.45 155.28 8.45 155.28 11.52 165.41 11.52 165.41 19.02 155.28 19.02 155.28 22.25 166.61 22.25 166.61 29.75 144.35 29.75 144.35 .96"/>
    <path class="cls-6" d="M180.77.96h11.41v19.58c0,6.7-5.07,9.97-12.8,9.97-6.74,0-12-3.03-12-8.89v-1.4h9.65v.6c0,1.32.6,2.2,1.71,2.2,1.64,0,2.03-1.08,2.03-3.03V.96Z"/>
    <polygon class="cls-6" points="196.04 .96 217.94 .96 217.94 8.45 206.97 8.45 206.97 11.52 217.1 11.52 217.1 19.02 206.97 19.02 206.97 22.25 218.29 22.25 218.29 29.75 196.04 29.75 196.04 .96"/>
    <polygon class="cls-6" points="221.17 .96 243.06 .96 243.06 8.45 232.57 8.45 232.57 11.52 242.34 11.52 242.34 19.02 232.57 19.02 232.57 29.75 221.17 29.75 221.17 .96"/>
    <path class="cls-6" d="M121.68,44.17c-.2-1.49-1.48-2.09-2.87-2.09-3.12,0-4.06,2.83-4.06,5.33s.94,5.33,4.06,5.33c1.35,0,2.7-.67,3-2.19h1.18c-.35,2.04-2.23,3.2-4.18,3.2-3.69,0-5.24-2.97-5.24-6.34s1.57-6.34,5.24-6.34c1.99,0,3.88.91,4.05,3.1h-1.18Z"/>
    <polygon class="cls-6" points="125.51 53.5 125.51 41.32 132.74 41.32 132.74 42.33 126.6 42.33 126.6 46.7 132.5 46.7 132.5 47.71 126.6 47.71 126.6 52.48 132.99 52.48 132.99 53.5 125.51 53.5"/>
    <polygon class="cls-6" points="135.64 41.32 136.89 41.32 143.6 52.03 143.64 52.03 143.64 41.32 144.73 41.32 144.73 53.5 143.35 53.5 136.77 42.97 136.74 42.97 136.74 53.5 135.64 53.5 135.64 41.32"/>
    <polygon class="cls-6" points="150.43 42.33 146.5 42.33 146.5 41.32 155.41 41.32 155.41 42.33 151.54 42.33 151.53 53.5 150.45 53.5 150.43 42.33"/>
    <path class="cls-6" d="M160.82,46.68c1.55,0,3.47-.1,3.47-2.18,0-2.35-2.19-2.18-3.36-2.18h-2.46v4.35h2.35ZM158.48,53.5h-1.1v-12.18h3.98c1.06,0,1.94.07,2.87.64.84.5,1.25,1.38,1.25,2.55,0,1.31-.93,2.26-2.35,2.61v.04c1.55.25,1.89,1.3,2.04,2.72.22,1.97.15,2.88.64,3.63h-1.26c-.29-.81-.36-1.67-.42-2.53-.25-2.78-.42-3.27-2.63-3.27h-3.02v5.8Z"/>
    <polygon class="cls-6" points="168.61 53.5 168.61 41.32 175.85 41.32 175.85 42.33 169.71 42.33 169.71 46.7 175.61 46.7 175.61 47.71 169.71 47.71 169.71 52.48 176.1 52.48 176.1 53.5 168.61 53.5"/>
    <path class="cls-6" d="M183.28,50.5c.12,1.31,1,2.24,2.31,2.24,1.55,0,2.14-1.57,2.14-3.04v-8.38h1.1v8.21c0,.89-.05,2.06-.84,3.02-.69.84-1.7,1.2-2.75,1.2-1.97,0-2.9-1.48-3.14-3.25h1.18Z"/>
    <path class="cls-6" d="M193.05,41.32v7.88c.08,2.21,1.35,3.54,3.36,3.54s3.27-1.33,3.36-3.54v-7.88h1.1v7.89c-.03,2.61-1.5,4.54-4.45,4.54s-4.42-1.92-4.45-4.54v-7.89h1.1Z"/>
    <path class="cls-6" d="M207.67,46.68c1.55,0,3.47-.1,3.47-2.18,0-2.35-2.19-2.18-3.36-2.18h-2.46v4.35h2.35ZM205.33,53.5h-1.1v-12.18h3.98c1.06,0,1.94.07,2.87.64.84.5,1.25,1.38,1.25,2.55,0,1.31-.93,2.26-2.35,2.61v.04c1.55.25,1.89,1.3,2.04,2.72.22,1.97.15,2.88.64,3.63h-1.26c-.29-.81-.35-1.67-.42-2.53-.25-2.78-.42-3.27-2.63-3.27h-3.02v5.8Z"/>
    <path class="cls-6" d="M221.97,49.2l-2.63-6.86-2.68,6.86h5.31ZM213.89,53.5l4.82-12.18h1.28l4.86,12.18h-1.2l-1.3-3.29h-6.05l-1.28,3.29h-1.13Z"/>
    <path class="cls-6" d="M229.59,53.75c-1.94,0-3.57-1.42-3.62-3.42h1.18c.03,1.87,1.42,2.41,3.05,2.41,1.37,0,2.93-.79,2.93-2.35,0-1.21-.88-1.79-1.91-2.12-1.97-.66-4.98-1.28-4.98-3.91,0-2.13,1.96-3.29,3.88-3.29,1.6,0,3.69.56,3.96,2.9h-1.18c-.03-1.5-1.4-1.89-2.65-1.89s-2.83.64-2.83,2.13c0,3.46,6.88,1.89,6.88,6.09,0,2.65-2.28,3.46-4.72,3.46"/>
    <path class="cls-6" d="M239.9,53.75c-1.94,0-3.58-1.42-3.63-3.42h1.18c.04,1.87,1.42,2.41,3.05,2.41,1.37,0,2.93-.79,2.93-2.35,0-1.21-.88-1.79-1.91-2.12-1.97-.66-4.98-1.28-4.98-3.91,0-2.13,1.96-3.29,3.88-3.29,1.6,0,3.69.56,3.96,2.9h-1.18c-.03-1.5-1.4-1.89-2.65-1.89s-2.83.64-2.83,2.13c0,3.46,6.88,1.89,6.88,6.09,0,2.65-2.28,3.46-4.72,3.46"/>
    <line class="cls-3" x1="247.95" y1="53.5" x2="247.95" y2="41.27"/>
    <polygon class="cls-6" points="252.01 53.5 252.01 41.32 259.24 41.32 259.24 42.33 253.1 42.33 253.1 46.7 259.01 46.7 259.01 47.71 253.1 47.71 253.1 52.48 259.5 52.48 259.5 53.5 252.01 53.5"/>
    <polygon class="cls-6" points="262.14 41.32 263.39 41.32 270.1 52.03 270.14 52.03 270.14 41.32 271.24 41.32 271.24 53.5 269.85 53.5 263.27 42.97 263.24 42.97 263.24 53.5 262.14 53.5 262.14 41.32"/>
    <path class="cls-6" d="M117.63,74.68c3.42,0,4.82-2.01,4.82-5.08,0-3.59-2.11-5.18-5.56-5.08h-1.72v10.15h2.46ZM117.36,63.51c4,0,6.27,2.06,6.27,6.09s-2.28,6.09-6.27,6.09h-3.29v-12.18h3.29Z"/>
    <polygon class="cls-6" points="128.17 63.51 126.96 66.97 126.08 66.97 126.8 63.51 128.17 63.51"/>
    <polygon class="cls-6" points="131.12 75.69 131.12 63.51 138.36 63.51 138.36 64.52 132.22 64.52 132.22 68.89 138.12 68.89 138.12 69.9 132.22 69.9 132.22 74.68 138.61 74.68 138.61 75.69 131.12 75.69"/>
    <polygon class="cls-6" points="141.26 63.51 142.51 63.51 149.22 74.22 149.25 74.22 149.25 63.51 150.35 63.51 150.35 75.69 148.97 75.69 142.39 65.16 142.35 65.16 142.35 75.69 141.26 75.69 141.26 63.51"/>
    <path class="cls-6" d="M156.49,75.94c-1.94,0-3.58-1.42-3.63-3.42h1.18c.03,1.87,1.42,2.41,3.05,2.41,1.37,0,2.93-.79,2.93-2.35,0-1.21-.88-1.79-1.91-2.13-1.97-.66-4.97-1.28-4.97-3.91,0-2.13,1.96-3.29,3.88-3.29,1.6,0,3.69.56,3.96,2.9h-1.18c-.03-1.5-1.4-1.89-2.65-1.89s-2.83.64-2.83,2.12c0,3.46,6.88,1.89,6.88,6.09,0,2.65-2.28,3.46-4.72,3.46"/>
    <polygon class="cls-6" points="163.91 75.69 163.91 63.51 171.14 63.51 171.14 64.52 165 64.52 165 68.89 170.9 68.89 170.9 69.9 165 69.9 165 74.68 171.39 74.68 171.39 75.69 163.91 75.69"/>
    <line class="cls-2" x1="174.84" y1="75.69" x2="174.84" y2="63.46"/>
    <path class="cls-6" d="M187.82,69.48v5.7c-1.47.57-2.8.76-4.37.76-3.32,0-5.19-2.6-5.19-6.34,0-3.14,1.67-6.34,5.19-6.34,2.02,0,4.1,1.1,4.29,3.25h-1.25c-.22-1.55-1.59-2.24-3.04-2.24-2.92,0-4.01,2.8-4.01,5.33,0,3.1,1.3,5.33,4.59,5.33.91,0,1.84-.25,2.7-.51v-3.93h-3.05v-1.01h4.15Z"/>
    <polygon class="cls-6" points="190.91 63.51 192.15 63.51 198.87 74.22 198.9 74.22 198.9 63.51 200 63.51 200 75.69 198.61 75.69 192.04 65.16 192 65.16 192 75.69 190.91 75.69 190.91 63.51"/>
    <polygon class="cls-6" points="203.25 75.69 203.25 63.51 210.49 63.51 210.49 64.52 204.35 64.52 204.35 68.89 210.25 68.89 210.25 69.9 204.35 69.9 204.35 74.68 210.74 74.68 210.74 75.69 203.25 75.69"/>
    <polygon class="cls-6" points="213.47 75.69 213.47 63.51 215.23 63.51 219.8 74.12 224.47 63.51 226.14 63.51 226.14 75.69 225.04 75.69 225.04 64.44 225.01 64.44 220.35 75.69 219.26 75.69 214.6 64.49 214.57 64.49 214.57 75.69 213.47 75.69"/>
    <polygon class="cls-6" points="229.48 75.69 229.48 63.51 236.71 63.51 236.71 64.52 230.57 64.52 230.57 68.89 236.48 68.89 236.48 69.9 230.57 69.9 230.57 74.68 236.96 74.68 236.96 75.69 229.48 75.69"/>
    <polygon class="cls-6" points="239.61 63.51 240.86 63.51 247.57 74.22 247.61 74.22 247.61 63.51 248.7 63.51 248.7 75.69 247.32 75.69 240.74 65.16 240.71 65.16 240.71 75.69 239.61 75.69 239.61 63.51"/>
    <polygon class="cls-6" points="254.4 64.52 250.47 64.52 250.47 63.51 259.38 63.51 259.38 64.52 255.52 64.52 255.5 75.69 254.42 75.69 254.4 64.52"/>
    <polygon class="cls-6" points="266.02 75.69 266.02 63.51 273.26 63.51 273.26 64.52 267.12 64.52 267.12 68.89 273.02 68.89 273.02 69.9 267.12 69.9 267.12 74.68 273.51 74.68 273.51 75.69 266.02 75.69"/>
    <polygon class="cls-6" points="278.77 64.52 274.84 64.52 274.84 63.51 283.75 63.51 283.75 64.52 279.88 64.52 279.87 75.69 278.79 75.69 278.77 64.52"/>
    <path class="cls-6" d="M293.77,74.68c3.42,0,4.82-2.01,4.82-5.08,0-3.59-2.11-5.18-5.56-5.08h-1.72v10.15h2.46ZM293.5,63.51c4,0,6.27,2.06,6.27,6.09s-2.28,6.09-6.27,6.09h-3.29v-12.18h3.29Z"/>
    <polygon class="cls-6" points="302.57 75.69 302.57 63.51 309.8 63.51 309.8 64.52 303.67 64.52 303.67 68.89 309.57 68.89 309.57 69.9 303.67 69.9 303.67 74.68 310.06 74.68 310.06 75.69 302.57 75.69"/>
    <polygon class="cls-6" points="317.44 75.69 317.44 63.51 324.32 63.51 324.32 64.52 318.54 64.52 318.54 68.82 324.12 68.82 324.12 69.83 318.54 69.83 318.54 75.69 317.44 75.69"/>
    <path class="cls-6" d="M331.78,74.93c3.04,0,4.25-2.67,4.25-5.33s-1.21-5.33-4.25-5.33-4.25,2.67-4.25,5.33,1.22,5.33,4.25,5.33M331.78,75.94c-3.49,0-5.43-2.55-5.43-6.34s1.94-6.34,5.43-6.34,5.43,2.55,5.43,6.34-1.94,6.34-5.43,6.34"/>
    <path class="cls-6" d="M343.52,68.87c1.55,0,3.47-.1,3.47-2.18,0-2.35-2.19-2.18-3.36-2.18h-2.46v4.35h2.35ZM341.17,75.69h-1.1v-12.18h3.98c1.06,0,1.94.07,2.87.64.84.5,1.25,1.38,1.25,2.55,0,1.31-.93,2.26-2.35,2.61v.03c1.55.25,1.89,1.3,2.04,2.72.22,1.97.15,2.88.64,3.63h-1.26c-.29-.81-.36-1.67-.42-2.53-.25-2.78-.42-3.27-2.63-3.27h-3.02v5.8Z"/>
    <polygon class="cls-6" points="351.22 75.69 351.22 63.51 352.98 63.51 357.55 74.12 362.22 63.51 363.89 63.51 363.89 75.69 362.79 75.69 362.79 64.44 362.76 64.44 358.1 75.69 357.01 75.69 352.35 64.49 352.32 64.49 352.32 75.69 351.22 75.69"/>
    <path class="cls-6" d="M373.74,71.39l-2.63-6.87-2.68,6.87h5.31ZM365.66,75.69l4.82-12.18h1.28l4.86,12.18h-1.2l-1.3-3.29h-6.06l-1.28,3.29h-1.13Z"/>
    <polygon class="cls-6" points="379.61 64.52 375.68 64.52 375.68 63.51 384.58 63.51 384.58 64.52 380.72 64.52 380.71 75.69 379.63 75.69 379.61 64.52"/>
    <line class="cls-3" x1="387.17" y1="75.69" x2="387.17" y2="63.46"/>
    <path class="cls-6" d="M396.07,74.93c3.04,0,4.25-2.67,4.25-5.33s-1.21-5.33-4.25-5.33-4.25,2.67-4.25,5.33,1.21,5.33,4.25,5.33M396.07,75.94c-3.49,0-5.43-2.55-5.43-6.34s1.94-6.34,5.43-6.34,5.43,2.55,5.43,6.34-1.94,6.34-5.43,6.34"/>
    <polygon class="cls-6" points="404.18 63.51 405.43 63.51 412.14 74.22 412.18 74.22 412.18 63.51 413.27 63.51 413.27 75.69 411.89 75.69 405.31 65.16 405.28 65.16 405.28 75.69 404.18 75.69 404.18 63.51"/>
  </g>
</svg>